<?xml version="1.0" encoding="UTF-8"?>
<svg width="233px" height="72px" viewBox="0 0 233 72" version="1.1" xmlns="http://www.w3.org/2000/svg" xmlns:xlink="http://www.w3.org/1999/xlink">
    <!-- Generator: Sketch 64 (93537) - https://sketch.com -->
    <title>1 Logos/1 Main/Full</title>
    <desc>Created with Sketch.</desc>
    <g id="1-Logos/1-Main/Full" stroke="none" stroke-width="1" fill="none" fill-rule="evenodd">
        <g id="im-bank-limited-vector-logo" fill="#0E5CA8" fill-rule="nonzero">
            <g id="Layer_2" transform="translate(0.000000, 0.786058)">
                <g id="Group">
                    <path d="M108.135897,11.3825397 L125.461538,11.3825397 C133.078846,11.3825397 139.463942,14.0497354 139.463942,22.5396825 C139.463942,27.310582 136.812821,31.7058201 132.145353,32.7201058 L132.145353,32.8328042 C137.970353,33.584127 141.554968,37.8291005 141.554968,43.7645503 C141.554968,48.0846561 140.210737,56.8751323 125.498878,56.8751323 L108.210577,56.8751323 L108.210577,11.3825397 L108.135897,11.3825397 Z M112.467308,31.3301587 L125.461538,31.3301587 C131.0625,31.3301587 135.095192,27.8740741 135.095192,23.6291005 C135.095192,16.0407407 130.801122,15.1015873 125.461538,15.1015873 L112.467308,15.1015873 L112.467308,31.3301587 Z M112.467308,53.1936508 L125.461538,53.1936508 C131.846635,53.2687831 137.372917,51.6910053 137.372917,43.8396825 C137.372917,38.0544974 133.004167,35.0492063 125.461538,35.0492063 L112.467308,35.0492063 L112.467308,53.1936508 Z" id="Shape"></path>
                    <path d="M145.625,34.147619 C145.998397,26.3714286 151.41266,23.0656085 158.955288,23.0656085 C164.742949,23.0656085 171.053365,24.8687831 171.053365,33.6968254 L171.053365,52.1793651 C171.053365,53.7195767 171.8375,54.621164 173.405769,54.621164 C173.853846,54.621164 175.907532,54.4333333 176.20625,54.3206349 L176.579647,56.6873016 C175.496795,57.2132275 173.219071,57.7015873 172.136218,57.7015873 C168.066186,57.7015873 167.356731,55.6354497 167.356731,52.1793651 L167.207372,52.1793651 C164.406891,56.4619048 158.917949,58.0772487 155.221314,58.0772487 C149.172276,58.0772487 144.20609,55.0719577 144.20609,48.3851852 C144.20609,39.1063492 153.204968,38.768254 161.867788,37.7539683 C165.191026,37.3783069 167.282051,36.9275132 167.282051,33.2835979 C167.282051,27.8365079 163.13734,26.484127 158.395192,26.484127 C153.429006,26.484127 149.732372,28.7756614 149.620353,34.1851852 L145.625,34.1851852 L145.625,34.147619 Z M167.244897,39.2190476 L167.095353,39.2190476 C166.572596,40.1957672 164.817628,40.4962963 163.734776,40.684127 C156.901603,41.8862434 148.238782,41.6232804 148.238782,48.1222222 C148.238782,52.1793651 151.786058,54.6587302 155.557372,54.6587302 C161.68109,54.6587302 167.282051,50.9396825 167.244897,44.4783069 L167.244897,39.2190476 L167.244897,39.2190476 Z" id="Shape"></path>
                    <path d="M176.019551,24.0047619 L179.902885,24.0047619 L179.902885,29.6772487 L180.014904,29.6772487 C181.433814,25.7328042 185.690545,23.0656085 190.171314,23.0656085 C199.095513,23.0656085 201.821314,27.9116402 201.821314,35.762963 L201.821314,56.9126984 L197.937981,56.9126984 L197.937981,36.4015873 C197.937981,30.7291005 196.145673,26.4465608 189.872596,26.4465608 C183.711538,26.4465608 180.014904,31.2925926 179.902885,37.7164021 L179.902885,56.9126984 L176.019551,56.9126984 L176.019551,24.0047619 L176.019551,24.0047619 Z" id="Path"></path>
                    <polygon id="Path" points="205.779327 11.3074074 209.774679 11.3074074 209.774679 39.4820106 225.532051 23.9671958 230.647596 23.9671958 218.4375 35.9507937 232.253205 56.9126984 227.660417 56.9126984 215.749038 38.7306878 209.774679 44.4031746 209.774679 56.9126984 205.779327 56.9126984"></polygon>
                    <path d="M42.9780449,51.6534392 C39.6548077,55.7857143 34.2778846,58.2275132 28.9383013,58.2275132 C21.0969551,58.2275132 14.7491987,52.705291 14.7491987,44.4783069 C14.7491987,36.9650794 20.3501603,33.4714286 25.4283654,30.7291005 C22.9266026,27.4608466 20.6862179,25.1693122 20.6862179,20.7740741 C20.6862179,15.2142857 24.905609,11.5328042 30.431891,11.5328042 C35.9581731,11.5328042 40.2522436,15.2518519 40.2522436,20.7740741 C40.2522436,26.4465608 35.9208333,29.0761905 31.4027244,31.9312169 L42.7540064,45.0793651 C43.7621795,42.9756614 44.4716346,40.9846561 44.6209936,36.326455 L48.2429487,36.326455 C48.05625,40.2708995 47.3467949,44.778836 45.2184295,48.2724868 L52.0516026,56.7624339 L47.1600962,56.7624339 L42.9780449,51.6534392 Z M27.7807692,33.6592593 C23.3,35.9883598 19.0059295,38.8433862 19.0059295,45.605291 C19.0059295,50.9772487 23.5240385,54.6587302 28.7142628,54.6587302 C34.0165064,54.6587302 37.9745192,52.1793651 40.5509615,48.5354497 L27.7807692,33.6592593 Z M24.3828526,20.7740741 C24.3828526,23.9671958 27.2580128,26.5968254 29.2370192,29.0386243 C31.8134615,27.4232804 36.4809295,24.7185185 36.4809295,20.7740741 C36.4809295,17.0174603 33.7177885,14.9137566 30.431891,14.9137566 C27.1086538,14.8761905 24.3828526,16.9798942 24.3828526,20.7740741" id="Shape"></path>
                    <polygon id="Path" points="175.347436 61.721164 177.326442 61.721164 177.326442 69.1592593 181.732532 69.1592593 181.732532 70.8121693 175.347436 70.8121693"></polygon>
                    <rect id="Rectangle" x="184.122276" y="61.721164" width="1.97900641" height="9.09100529"></rect>
                    <polygon id="Path" points="189.125801 61.721164 191.851603 61.721164 193.905288 67.994709 193.905288 67.994709 195.846955 61.721164 198.572756 61.721164 198.572756 70.8121693 196.743109 70.8121693 196.743109 64.3883598 196.743109 64.3883598 194.577404 70.8121693 193.121154 70.8121693 190.955449 64.4259259 190.955449 64.4259259 190.955449 70.8121693 189.125801 70.8121693"></polygon>
                    <rect id="Rectangle" x="200.92516" y="61.721164" width="1.97900641" height="9.09100529"></rect>
                    <polygon id="Path" points="207.758333 63.4116402 205.069872 63.4116402 205.069872 61.721164 212.463141 61.721164 212.463141 63.4116402 209.73734 63.4116402 209.73734 70.8121693 207.758333 70.8121693"></polygon>
                    <polygon id="Path" points="215.076923 61.721164 221.835417 61.721164 221.835417 63.4116402 217.055929 63.4116402 217.055929 65.3650794 221.462019 65.3650794 221.462019 66.905291 217.055929 66.905291 217.055929 69.1592593 221.947436 69.1592593 221.947436 70.8121693 215.076923 70.8121693"></polygon>
                    <path d="M224.934615,61.721164 L228.855288,61.721164 C231.207692,61.721164 232.96266,63.1862434 232.96266,66.2291005 C232.96266,68.8587302 231.618429,70.8121693 228.855288,70.8121693 L224.934615,70.8121693 L224.934615,61.721164 Z M226.950962,69.1592593 L228.705929,69.1592593 C229.863462,69.1592593 230.946314,68.4455026 230.946314,66.4169312 C230.946314,64.5761905 230.311538,63.4116402 228.332532,63.4116402 L226.913622,63.4116402 L226.913622,69.1592593 L226.950962,69.1592593 Z" id="Shape"></path>
                    <rect id="Rectangle" x="0.112019231" y="11.0820106" width="15.7947115" height="45.6804233"></rect>
                    <polygon id="Path" points="83.3423077 11.0820106 75.3142628 37.8291005 67.9209936 11.0820106 49.2137821 11.0820106 49.2137821 56.7624339 62.2080128 56.7624339 62.2080128 30.1656085 70.8708333 56.5746032 70.8334936 56.7624339 79.6830128 56.7624339 79.6456731 56.5746032 88.2711538 30.4661376 88.2711538 56.7624339 101.265385 56.7624339 101.265385 11.0820106"></polygon>
                    <rect id="Rectangle" x="0.112019231" y="0.0751322751" width="15.7947115" height="6.53650794"></rect>
                    <rect id="Rectangle" x="0.410737179" y="61.8338624" width="170.717308" height="8.97830688"></rect>
                </g>
            </g>
        </g>
    </g>
</svg>