<?xml version="1.0" encoding="UTF-8"?>
<svg width="65px" height="45px" viewBox="0 0 65 45" version="1.1" xmlns="http://www.w3.org/2000/svg" xmlns:xlink="http://www.w3.org/1999/xlink">
    <!-- Generator: Sketch 64 (93537) - https://sketch.com -->
    <title>1 Logos/3 Black/Emblem</title>
    <desc>Created with Sketch.</desc>
    <g id="1-Logos/3-Black/Emblem" stroke="none" stroke-width="1" fill="none" fill-rule="evenodd">
        <g id="Group-2" transform="translate(0.000000, 4.000000)" fill="#000000" fill-rule="nonzero">
            <path d="M27.1621622,32.8649084 C25.024024,35.5197757 21.5645646,37.0885609 18.1291291,37.0885609 C13.0840841,37.0885609 9,33.5406928 9,28.2550935 C9,23.4280621 12.6036036,21.1834925 15.8708709,19.4216261 C14.2612613,17.3218674 12.8198198,15.8496228 12.8198198,13.0258095 C12.8198198,9.45380626 15.5345345,7.08856089 19.0900901,7.08856089 C22.6456456,7.08856089 25.4084084,9.47794142 25.4084084,13.0258095 C25.4084084,16.6702182 22.6216216,18.3596791 19.7147147,20.1939511 L27.018018,28.641256 C27.6666667,27.2896872 28.1231231,26.0105239 28.2192192,23.0177644 L30.5495495,23.0177644 C30.4294294,25.5519559 29.972973,28.4481747 28.6036036,30.6927443 L33,36.1472898 L29.8528529,36.1472898 L27.1621622,32.8649084 Z M17.3843844,21.3041683 C14.5015015,22.800548 11.7387387,24.6348199 11.7387387,28.9791482 C11.7387387,32.4304756 14.6456456,34.795721 17.984985,34.795721 C21.3963964,34.795721 23.9429429,33.2028006 25.6006006,30.8616904 L17.3843844,21.3041683 Z M15.1981982,13.0258095 C15.1981982,15.0772978 17.048048,16.7667588 18.3213213,18.335544 C19.978979,17.2977322 22.981982,15.5600009 22.981982,13.0258095 C22.981982,10.6122938 21.2042042,9.260725 19.0900901,9.260725 C16.951952,9.23658985 15.1981982,10.5881586 15.1981982,13.0258095" id="Shape"></path>
            <rect id="Rectangle" x="0" y="7.08856089" width="10" height="29"></rect>
            <polygon id="Path" points="53.6370158 7.08856089 48.5473458 24.068824 43.8601148 7.08856089 32 7.08856089 32 36.0885609 40.2381636 36.0885609 40.2381636 19.2036925 45.7302726 35.9693175 45.7065997 36.0885609 51.3170732 36.0885609 51.2934003 35.9693175 56.7618364 19.3944819 56.7618364 36.0885609 65 36.0885609 65 7.08856089"></polygon>
            <rect id="Rectangle" x="0" y="0.0885608856" width="10" height="4"></rect>
        </g>
    </g>
</svg>