<?xml version="1.0" encoding="UTF-8"?>
<svg width="247px" height="138px" viewBox="0 0 247 138" version="1.1" xmlns="http://www.w3.org/2000/svg" xmlns:xlink="http://www.w3.org/1999/xlink">
    <!-- Generator: Sketch 64 (93537) - https://sketch.com -->
    <title>Group 6</title>
    <desc>Created with Sketch.</desc>
    <defs>
        <path d="M26.2720936,21.3603275 C26.3795088,21.1097076 26.6251696,20.9469942 26.8940351,20.9459649 L26.9840936,20.9459649 C28.6213333,20.9459649 29.9533567,19.6139415 29.9533567,17.9767018 C29.9533567,16.3395088 28.6213333,15.0074854 26.9840936,15.0074854 L26.8178246,15.0074854 C26.5870877,15.0065497 26.3757661,14.8899649 26.2510877,14.702269 C26.2372865,14.6341053 26.2161871,14.5674386 26.1879766,14.5034386 C26.0749942,14.2475322 26.1275322,13.9531228 26.3218246,13.7521871 L26.3748772,13.6991345 C26.3763743,13.697731 26.3778246,13.6962807 26.3792281,13.6948304 C26.9396959,13.1337076 27.2481871,12.387883 27.2476725,11.5947602 C27.2472515,10.8029942 26.9389474,10.0587135 26.3796491,9.49852632 C26.378152,9.49702924 26.3767018,9.49557895 26.3752515,9.49408187 C25.8145029,8.93394152 25.0693801,8.62559064 24.2768655,8.62559064 C24.2763509,8.62559064 24.2757427,8.62559064 24.2751813,8.62559064 C23.4820585,8.6260117 22.7365614,8.93529825 22.1764678,9.49604678 L22.1210292,9.55153216 C21.9201404,9.74573099 21.625731,9.79831579 21.3697778,9.68538012 C21.3665965,9.68402339 21.3634152,9.68261988 21.3602339,9.68126316 C21.109614,9.57384795 20.9469006,9.32818713 20.9458713,9.05936842 L20.9458713,8.96926316 C20.9458713,7.33207018 19.613848,6.00004678 17.9766082,6.00004678 C16.3393684,6.00004678 15.0073918,7.33207018 15.0073918,8.96926316 L15.0073918,9.13557895 C15.0064561,9.36631579 14.8898713,9.57763743 14.7021754,9.70226901 C14.6340117,9.71607018 14.567345,9.73721637 14.503345,9.7654269 C14.2474854,9.87840936 13.9530292,9.82582456 13.7520936,9.63157895 L13.6947368,9.57417544 C13.1339415,9.01403509 12.3889123,8.70568421 11.5963977,8.70568421 C11.5958363,8.70568421 11.5951813,8.70568421 11.5946667,8.70568421 C10.8015439,8.70610526 10.0560468,9.01539181 9.4939883,9.57810526 C8.93347368,10.1391813 8.62502924,10.8850058 8.62549708,11.6781287 C8.62591813,12.4712515 8.93520468,13.2167018 9.49595322,13.7767953 L9.55139181,13.8322339 C9.74563743,14.0331696 9.79822222,14.3275322 9.68528655,14.5834854 C9.67700585,14.602152 9.6694269,14.6210526 9.66236257,14.6401871 C9.56580117,14.9026433 9.32435088,15.0774269 9.04556725,15.0874854 L8.96916959,15.0874854 C7.33202339,15.0874854 6,16.4195088 6,18.0567018 C6,19.6939883 7.33202339,21.0259649 8.96930994,21.0258713 L9.13557895,21.0258713 C9.40832749,21.0269942 9.65389474,21.189614 9.76130994,21.4402339 C9.76266667,21.443462 9.76407018,21.4466433 9.7654269,21.4497778 C9.87840936,21.7056842 9.82582456,22.0000936 9.63153216,22.201076 L9.57609357,22.2564678 C9.57483041,22.2577778 9.57356725,22.2590877 9.57225731,22.2603977 C9.01295906,22.8212398 8.70521637,23.5663158 8.70563743,24.3585029 C8.70605848,25.1516257 9.01534503,25.8971228 9.57646784,26.4575906 C9.57782456,26.4589942 9.57922807,26.4603977 9.58063158,26.4617544 C10.7391813,27.6163275 12.6209123,27.6144094 13.7767485,26.4572164 L13.8322339,26.401731 C14.0331228,26.2075322 14.3275322,26.1548538 14.5834386,26.267883 C14.6020585,26.2760702 14.6209591,26.2836959 14.6400936,26.2907602 C14.9025965,26.3873216 15.0773333,26.6288187 15.0874386,26.9076023 L15.0874386,26.9839532 C15.0874386,28.621193 16.419462,29.9532164 18.056655,29.9532164 C19.6939415,29.9532164 21.0259181,28.621193 21.0259649,26.9840468 L21.0259649,26.8178246 C21.0270877,26.545076 21.1897076,26.299462 21.4403275,26.1920468 C21.4435556,26.1906433 21.4466901,26.1892865 21.4498246,26.1879298 C21.7057778,26.0749474 22.0001871,26.1274854 22.2011228,26.3217778 L22.2585263,26.3791345 C22.8192749,26.9392749 23.5643509,27.2476725 24.3568655,27.2476257 C24.3574269,27.2476257 24.3580351,27.2476257 24.3585965,27.2476257 C25.1517193,27.2471579 25.8972164,26.9379181 26.4592749,26.3752515 C27.6162807,25.2168889 27.6152515,23.3331462 26.4573567,22.1764678 L26.4018713,22.1210292 C26.2076725,21.9200936 26.1550877,21.625731 26.2680234,21.369731 C26.2694269,21.3666433 26.2707836,21.3635088 26.2720936,21.3603275 Z M25.0212865,23.4772865 C25.0237661,23.4798129 25.0262924,23.4823392 25.0287719,23.4848655 L25.0891696,23.5452632 C25.4924912,23.9482573 25.4929123,24.6042573 25.0883743,25.0092164 C24.893193,25.2046784 24.6335439,25.3123743 24.3573333,25.3125146 C24.3570994,25.3125146 24.3569591,25.3125146 24.3567251,25.3125146 C24.0807018,25.3125146 23.821193,25.2050994 23.6247485,25.0088421 L23.5647251,24.9488187 C23.5621988,24.9462924 23.5596725,24.9438129 23.5570994,24.9412865 C22.7884444,24.1894737 21.6568421,23.9833918 20.6727953,24.4155789 C19.7156491,24.8281637 19.0948304,25.7674386 19.0906199,26.8139415 L19.0906199,26.9840468 C19.0906199,27.5542456 18.6267602,28.0181053 18.0565614,28.0181053 C17.4864094,28.0181053 17.0225497,27.5541988 17.0225497,26.9840468 L17.0225497,26.8939883 C17.0225497,26.8864561 17.0224561,26.878924 17.022269,26.871345 C16.997193,25.7993918 16.3367018,24.8661053 15.3367485,24.4853801 C14.3582222,24.0666667 13.2384094,24.2755088 12.4759298,25.0213333 C12.4734035,25.0238129 12.4708772,25.0263392 12.4683509,25.0288187 L12.4079064,25.0892632 C12.0050058,25.4926316 11.3489591,25.4930526 10.9455439,25.0901053 C10.9443743,25.0889357 10.9431579,25.0877661 10.9420351,25.0866433 C10.7478363,24.8916491 10.6408889,24.6328421 10.6407018,24.3575673 C10.6405146,24.0813567 10.7479766,23.8216608 10.9431579,23.6262456 C10.9442807,23.6251696 10.9453567,23.624 10.9464795,23.622924 L11.0043977,23.5649591 C11.006924,23.5624327 11.0094503,23.5599064 11.0119298,23.5573333 C11.7636959,22.7888187 11.9697778,21.6572164 11.537731,20.6731696 C11.125193,19.7159298 10.1858246,19.0950643 9.13927485,19.0908538 L8.96912281,19.0908538 C8.39897076,19.0908538 7.93511111,18.6269474 7.93511111,18.0567953 C7.93511111,17.4866433 8.39901754,17.0227836 8.96912281,17.0227368 L9.05922807,17.0227368 C9.06676023,17.0227368 9.07433918,17.0226433 9.08187135,17.0224561 C10.1539181,16.9973801 11.0871579,16.3368889 11.467883,15.3369357 C11.8865029,14.3584094 11.6777544,13.2386901 10.9319298,12.4762105 C10.9294503,12.4736842 10.926924,12.4711579 10.9243977,12.4686316 L10.864,12.4081871 C10.6685848,12.2129591 10.5608889,11.9533567 10.5607485,11.6771462 C10.5605614,11.4009825 10.6680234,11.1412398 10.8647953,10.9442339 C11.0600234,10.7488187 11.3196257,10.6411228 11.5958363,10.6409825 C11.5960702,10.6409825 11.5962105,10.6409825 11.5964444,10.6409825 C11.8724678,10.6409825 12.1319766,10.7483977 12.3284211,10.944655 L12.3884912,11.0046784 C12.3909708,11.0072047 12.3935439,11.009731 12.3960702,11.0122105 C13.1173333,11.7177076 14.158269,11.9426433 15.097076,11.6105263 C15.1857778,11.5991579 15.2727485,11.5755322 15.3553684,11.540117 C16.3154152,11.128655 16.9384795,10.187883 16.9426433,9.13955556 L16.9426433,8.96940351 C16.9426433,8.39925146 17.4065029,7.93539181 17.976655,7.93539181 C18.546807,7.93539181 19.0107135,8.39929825 19.0107135,8.96945029 L19.0107135,9.06339181 C19.0148304,10.1060585 19.6357427,11.0454269 20.5929825,11.4580117 C21.5771228,11.8901988 22.7085848,11.6839766 23.477193,10.9322105 C23.4797193,10.929731 23.4822456,10.9272047 23.4848187,10.9246784 L23.5452632,10.8642807 C23.7404444,10.6688655 24.0000936,10.5611696 24.2762573,10.5610292 C24.2764912,10.5610292 24.2766784,10.5610292 24.2768655,10.5610292 C24.552,10.5610292 24.8108538,10.6677895 25.0058947,10.8617544 C25.0069708,10.8628772 25.0080936,10.8639532 25.0091696,10.865076 C25.2046316,11.0603041 25.3123275,11.3199064 25.3124678,11.596117 C25.312655,11.8715789 25.2058012,12.1305731 25.0116959,12.3258012 C25.0107602,12.3267368 25.0097778,12.3276725 25.0087953,12.328655 L24.9487719,12.3887251 C24.9462456,12.3912047 24.9437661,12.393731 24.9412398,12.3963041 C24.2357427,13.1175673 24.010807,14.1585497 24.342924,15.0973099 C24.3543392,15.1860585 24.3779649,15.2730292 24.4133801,15.3556491 C24.8248421,16.3156959 25.765614,16.9387602 26.8139415,16.942924 L26.9840468,16.942924 C27.5542456,16.942924 28.0181053,17.4067836 28.0181053,17.9769357 C28.0181053,18.5470877 27.5541988,19.0109942 26.9840468,19.0109942 L26.890152,19.0109942 C25.8474854,19.0151111 24.9081637,19.6360234 24.4955322,20.5932164 C24.0633918,21.5770292 24.2695205,22.7087251 25.0212865,23.4772865 Z M17.9766082,14.0066433 C15.7875556,14.0066433 14.0065497,15.7876023 14.0065497,17.9767018 C14.0065497,20.1658012 15.7875088,21.9467602 17.9766082,21.9467602 C20.1657076,21.9467602 21.9466667,20.1658012 21.9466667,17.9767018 C21.9466667,15.7876023 20.1656608,14.0066433 17.9766082,14.0066433 Z M17.9766082,20.0115088 C16.8545965,20.0115088 15.9417544,19.0987135 15.9417544,17.976655 C15.9417544,16.8546433 16.8545965,15.9418012 17.9766082,15.9418012 C19.0986667,15.9418012 20.011462,16.8546433 20.011462,17.976655 C20.011462,19.0986667 19.0986667,20.0115088 17.9766082,20.0115088 Z" id="path-1"></path>
        <path d="M40.8677011,33.2271761 C41.0347914,32.8373229 41.4169305,32.5842131 41.8351657,32.5826121 L41.9752567,32.5826121 C44.5220741,32.5826121 46.5941105,30.5105757 46.5941105,27.9637583 C46.5941105,25.4170136 44.5220741,23.3449773 41.9752567,23.3449773 L41.716616,23.3449773 C41.357692,23.3435218 41.0289695,23.1621676 40.8350253,22.8701962 C40.8135569,22.7641637 40.7807355,22.66046 40.7368525,22.5609045 C40.561102,22.1628278 40.6428278,21.7048577 40.9450604,21.3922911 L41.0275867,21.3097648 C41.0299155,21.3075815 41.0321715,21.3053255 41.0343548,21.3030695 C41.9061936,20.4302118 42.3860689,19.2700403 42.3852684,18.0362937 C42.3846134,16.8046576 41.9050292,15.6468876 41.0350097,14.7754854 C41.032681,14.7731566 41.030425,14.7709006 41.0281689,14.7685718 C40.1558934,13.8972424 38.9968135,13.4175854 37.764013,13.4175854 C37.7632125,13.4175854 37.7622664,13.4175854 37.7613931,13.4175854 C36.5276465,13.4182404 35.3679844,13.8993528 34.4967277,14.7716283 L34.4104899,14.8579389 C34.0979961,15.160026 33.640026,15.2418246 33.2418765,15.0661468 C33.2369279,15.0640364 33.2319792,15.0618532 33.2270305,15.0597427 C32.8371774,14.8926524 32.5840676,14.5105133 32.5824665,14.0923509 L32.5824665,13.9521871 C32.5824665,11.4054425 30.5104301,9.33340611 27.9636127,9.33340611 C25.4167953,9.33340611 23.3448317,11.4054425 23.3448317,13.9521871 L23.3448317,14.2109006 C23.3433762,14.5698246 23.1620221,14.8985471 22.8700507,15.0924185 C22.7640182,15.1138869 22.6603145,15.146781 22.5607589,15.1906641 C22.162755,15.3664146 21.7047122,15.284616 21.3921455,14.9824561 L21.302924,14.8931618 C20.4305757,14.0218324 19.2716413,13.5421754 18.0388408,13.5421754 C18.0379675,13.5421754 18.0369487,13.5421754 18.0361481,13.5421754 C16.8024016,13.5428304 15.6427394,14.0239428 14.7684263,14.8992749 C13.8965146,15.7720598 13.4167122,16.9322313 13.4174399,18.1659779 C13.4180949,19.3997245 13.8992073,20.5593138 14.7714828,21.4305705 L14.8577206,21.5168083 C15.1598804,21.8293749 15.241679,22.2872723 15.0660013,22.6854217 C15.0531202,22.7144587 15.0413307,22.7438596 15.0303418,22.7736244 C14.8801352,23.1818895 14.5045458,23.4537752 14.0708824,23.4694217 L13.9520416,23.4694217 C11.4053697,23.4694217 9.33333333,25.5414581 9.33333333,28.0882027 C9.33333333,30.6350929 11.4053697,32.7070565 13.9522599,32.706911 L14.2109006,32.706911 C14.6351761,32.7086576 15.0171696,32.9616218 15.1842599,33.351475 C15.1863704,33.3564964 15.1885536,33.3614451 15.1906641,33.366321 C15.3664146,33.7643977 15.284616,34.2223678 14.9823834,34.5350071 L14.8961455,34.6211722 C14.8941806,34.6232099 14.8922157,34.6252476 14.890178,34.6272853 C14.0201585,35.4997063 13.5414477,36.6587135 13.5421027,37.8910045 C13.5427576,39.1247511 14.02387,40.2844133 14.8967277,41.1562521 C14.8988382,41.1584353 14.9010214,41.1606186 14.9032047,41.162729 C16.7053931,42.9587316 19.6325302,42.9557479 21.4304977,41.1556699 L21.5168083,41.0693593 C21.8293021,40.7672723 22.2872723,40.6853281 22.6853489,40.8611514 C22.7143132,40.8738869 22.7437141,40.8857492 22.7734789,40.8967381 C23.1818168,41.0469448 23.4536296,41.4226069 23.4693489,41.8562703 L23.4693489,41.9750383 C23.4693489,44.5218558 25.5413853,46.5938921 28.08813,46.5938921 C30.6350201,46.5938921 32.7069838,44.5218558 32.7070565,41.9751839 L32.7070565,41.716616 C32.7088031,41.2923405 32.9617674,40.9102742 33.3516205,40.7431839 C33.356642,40.7410006 33.3615179,40.7388902 33.3663938,40.7367797 C33.7645432,40.5610292 34.2225133,40.642755 34.5350799,40.9449877 L34.6243743,41.0342092 C35.4966498,41.9055387 36.6556569,42.3852684 37.8884574,42.3851956 C37.8893307,42.3851956 37.8902768,42.3851956 37.8911501,42.3851956 C39.1248967,42.3844678 40.2845588,41.9034282 41.158872,41.0281689 C42.9586589,39.2262716 42.9570578,36.2960052 41.1558882,34.4967277 L41.0695776,34.4104899 C40.7674906,34.0979233 40.685692,33.640026 40.8613697,33.2418038 C40.863553,33.2370006 40.8656634,33.2321248 40.8677011,33.2271761 Z M38.9220013,36.5202235 C38.9258583,36.5241533 38.9297882,36.5280832 38.9336452,36.532013 L39.0275971,36.6259649 C39.6549864,37.2528447 39.6556413,38.2732891 39.02636,38.9032255 C38.7227446,39.2072775 38.318846,39.3748044 37.8891852,39.3750227 C37.8888213,39.3750227 37.888603,39.3750227 37.8882391,39.3750227 C37.4588694,39.3750227 37.0551891,39.2079324 36.7496088,38.9026433 L36.6562391,38.8092736 C36.6523093,38.8053437 36.6483795,38.8014867 36.6443769,38.7975569 C35.4486914,37.6280702 33.6884211,37.3074984 32.1576816,37.9797895 C30.6687875,38.621588 29.7030695,40.0826823 29.6965198,41.7105757 L29.6965198,41.9751839 C29.6965198,42.8621598 28.9749604,43.5837193 28.0879844,43.5837193 C27.2010812,43.5837193 26.4795218,42.8620871 26.4795218,41.9751839 L26.4795218,41.8350929 C26.4795218,41.8233762 26.4793762,41.8116595 26.4790851,41.79987 C26.440078,40.1323873 25.4126472,38.6806082 23.8571644,38.0883691 C22.3350123,37.437037 20.5930812,37.7619025 19.4070019,38.9220741 C19.4030721,38.9259311 19.3991423,38.9298609 19.3952125,38.933718 L19.3011878,39.0277427 C18.6744535,39.6552047 17.6539363,39.6558596 17.0264016,39.0290526 C17.0245822,39.0272333 17.0226901,39.0254139 17.0209435,39.0236673 C16.7188564,38.7203431 16.5524938,38.3177544 16.5522027,37.8895491 C16.5519116,37.4598882 16.7190747,37.0559168 17.0226901,36.7519376 C17.0244366,36.7502638 17.0261105,36.7484444 17.0278571,36.7467706 L17.1179519,36.656603 C17.1218817,36.6526732 17.1258116,36.6487433 17.1296686,36.6447407 C18.2990825,35.4492736 18.6196543,33.6890032 17.9475815,32.1582638 C17.3058558,30.6692242 15.844616,29.7034334 14.2166498,29.6968837 L13.9519688,29.6968837 C13.0650656,29.6968837 12.3435062,28.9752515 12.3435062,28.0883483 C12.3435062,27.2014451 13.0651384,26.4798856 13.9519688,26.4798129 L14.0921326,26.4798129 C14.1038493,26.4798129 14.1156387,26.4796673 14.1273554,26.4793762 C15.7949838,26.4403691 17.2466901,25.4129383 17.8389292,23.8574555 C18.4901157,22.3353034 18.1653957,20.5935179 17.0052242,19.4074386 C17.0013671,19.4035088 16.9974373,19.3995789 16.9935075,19.3956491 L16.8995556,19.3016244 C16.5955763,18.9979363 16.4280494,18.5941105 16.4278311,18.1644496 C16.42754,17.7348616 16.5947031,17.3308174 16.9007927,17.0243639 C17.2044808,16.7203847 17.6083067,16.5528577 18.0379675,16.5526394 C18.0383314,16.5526394 18.0385497,16.5526394 18.0389136,16.5526394 C18.4682833,16.5526394 18.8719636,16.7197297 19.1775439,17.0250188 L19.2709864,17.1183886 C19.2748434,17.1223184 19.278846,17.1262482 19.2827758,17.1301053 C20.4047407,18.2275452 22.023974,18.5774451 23.4843405,18.0608187 C23.622321,18.0431345 23.7576088,18.0063834 23.8861287,17.951293 C25.3795348,17.3112411 26.3487459,15.8478181 26.3552229,14.2170864 L26.3552229,13.9524055 C26.3552229,13.0655023 27.0767823,12.3439428 27.9636855,12.3439428 C28.8505887,12.3439428 29.5722209,13.065575 29.5722209,13.9524782 L29.5722209,14.0986095 C29.5786251,15.7205354 30.5444886,17.1817752 32.0335283,17.8235737 C33.5644133,18.4958648 35.3244652,18.1750747 36.520078,17.0056608 C36.5240078,17.0018038 36.5279376,16.9978739 36.5319402,16.9939441 L36.6259649,16.8999922 C36.9295802,16.596013 37.3334789,16.428486 37.7630669,16.4282677 C37.7634308,16.4282677 37.7637219,16.4282677 37.764013,16.4282677 C38.192,16.4282677 38.5946615,16.5943392 38.8980585,16.8960624 C38.8997323,16.897809 38.9014789,16.8994828 38.9031527,16.9012294 C39.2072047,17.2049175 39.3747316,17.6087433 39.37495,18.0384042 C39.3752411,18.4669006 39.209024,18.8697804 38.9070825,19.1734685 C38.905627,19.174924 38.9040988,19.1763795 38.9025705,19.1779077 L38.8092008,19.2713502 C38.805271,19.2752073 38.8014139,19.2791371 38.7974841,19.2831397 C37.7000442,20.4051046 37.3501442,22.0244107 37.8667706,23.4847044 C37.8845276,23.6227576 37.9212788,23.7580455 37.9763691,23.8865653 C38.6164211,25.3799714 40.0798441,26.3491826 41.7105757,26.3556595 L41.9751839,26.3556595 C42.8621598,26.3556595 43.5837193,27.077219 43.5837193,27.9641222 C43.5837193,28.8510253 42.8620871,29.5726576 41.9751839,29.5726576 L41.8291254,29.5726576 C40.2071995,29.5790617 38.7460325,30.5449253 38.1041611,32.0338921 C37.4319428,33.5642677 37.7525874,35.3246836 38.9220013,36.5202235 Z M27.9636127,21.7881118 C24.5584198,21.7881118 21.7879662,24.5584925 21.7879662,27.9637583 C21.7879662,31.369024 24.558347,34.1394048 27.9636127,34.1394048 C31.3688785,34.1394048 34.1392593,31.369024 34.1392593,27.9637583 C34.1392593,24.5584925 31.3688057,21.7881118 27.9636127,21.7881118 Z M27.9636127,31.1290136 C26.2182612,31.1290136 24.7982846,29.7091098 24.7982846,27.9636855 C24.7982846,26.218334 26.2182612,24.7983574 27.9636127,24.7983574 C29.709037,24.7983574 31.1289409,26.218334 31.1289409,27.9636855 C31.1289409,29.709037 29.709037,31.1290136 27.9636127,31.1290136 Z" id="path-3"></path>
        <linearGradient x1="101.499999%" y1="-0.499999523%" x2="0.499999523%" y2="101.499999%" id="linearGradient-5">
            <stop stop-color="#3023AE" offset="0%"></stop>
            <stop stop-color="#C86DD7" offset="100%"></stop>
        </linearGradient>
    </defs>
    <g id="Login" stroke="none" stroke-width="1" fill="none" fill-rule="evenodd">
        <g id="6.-Login-Blocked" transform="translate(-964.000000, -467.000000)">
            <g id="Group-6" transform="translate(950.000000, 468.000000)">
                <g id="Group-3" transform="translate(79.000000, 16.000000)" stroke="#008BFF" stroke-width="3">
                    <rect id="Rectangle" x="14.3333333" y="27.1666667" width="103.333333" height="59.3333333"></rect>
                    <rect id="Rectangle-Copy-3" x="30.8333333" y="14.3333333" width="70.3333333" height="13"></rect>
                    <rect id="Rectangle-Copy-5" x="30.8333333" y="86.8333333" width="70.3333333" height="18"></rect>
                    <rect id="Rectangle-Copy-4" x="54.6666667" y="1.5" width="22.6666667" height="13"></rect>
                    <rect id="Rectangle-Copy" x="1.5" y="43.6666667" width="13" height="26.3333333"></rect>
                    <rect id="Rectangle-Copy-2" x="117.5" y="43.6666667" width="13" height="26.3333333"></rect>
                    <g id="Group-2" transform="translate(34.833333, 51.333333)" stroke-linecap="square">
                        <line x1="0.55" y1="0.55" x2="11" y2="11" id="Line-2"></line>
                        <line x1="0.55" y1="0.55" x2="11" y2="11" id="Line-2-Copy" transform="translate(5.500000, 5.500000) scale(-1, 1) translate(-5.500000, -5.500000) "></line>
                    </g>
                    <g id="Group-2-Copy" transform="translate(82.500000, 51.333333)" stroke-linecap="square">
                        <line x1="0.55" y1="0.55" x2="11" y2="11" id="Line-2"></line>
                        <line x1="0.55" y1="0.55" x2="11" y2="11" id="Line-2-Copy" transform="translate(5.500000, 5.500000) scale(-1, 1) translate(-5.500000, -5.500000) "></line>
                    </g>
                </g>
                <path d="M221.905573,52.0572917 C217.960261,34.6128472 220.14125,25.890625 228.448542,25.890625 C240.90948,25.890625 246.093073,46.7239583 233.999323,38.7239583 C221.905573,30.7239583 215.835261,9.890625 233.999323,9.890625 C252.163386,9.890625 258.522761,27.5572917 250.179011,22.7239583 C241.835261,17.890625 226.163386,0 233.999323,0" id="Path-2" stroke="#FF5F08" stroke-linecap="round"></path>
                <g id="Icons-/-111-settings" transform="translate(231.000000, 69.000000)">
                    <mask id="mask-2" fill="white">
                        <use xlink:href="#path-1"></use>
                    </mask>
                    <g id="111-settings" fill-rule="nonzero"></g>
                    <g id="Colors-/-Secondary-/-Main" mask="url(#mask-2)" fill="#0059B1" fill-rule="evenodd">
                        <rect x="0" y="0" width="36" height="36"></rect>
                    </g>
                </g>
                <g id="Icons-/-111-settings" transform="translate(6.000000, 30.000000)">
                    <mask id="mask-4" fill="white">
                        <use xlink:href="#path-3"></use>
                    </mask>
                    <g id="111-settings" fill-rule="nonzero"></g>
                    <g id="Colors-/-Secondary-/-Main" mask="url(#mask-4)" fill="url(#linearGradient-5)" fill-rule="evenodd">
                        <rect x="0" y="0" width="56" height="56"></rect>
                    </g>
                </g>
                <g id="Group-5" transform="translate(47.140948, 111.539985) rotate(-50.000000) translate(-47.140948, -111.539985) translate(8.640948, 83.539985)" stroke="#008BFF" stroke-width="3">
                    <path d="M31.0535085,57.0572917 C27.108196,39.6128472 29.2891856,30.890625 37.5964773,30.890625 C50.0574148,30.890625 55.2410085,51.7239583 43.1472585,43.7239583 C31.0535085,35.7239583 24.983196,14.890625 43.1472585,14.890625 C61.311321,14.890625 67.670696,32.5572917 59.326946,27.7239583 C50.983196,22.890625 35.311321,5 43.1472585,5" id="Path-2-Copy-2" stroke-linecap="round" transform="translate(46.047614, 31.028646) rotate(290.000000) translate(-46.047614, -31.028646) "></path>
                    <g id="Group-4" transform="translate(15.212635, 18.248719) rotate(-45.000000) translate(-15.212635, -18.248719) translate(1.712635, 8.748719)">
                        <rect id="Rectangle" x="1.5" y="9.5" width="24" height="8"></rect>
                        <rect id="Rectangle-Copy-6" x="6" y="1.5" width="15" height="8"></rect>
                    </g>
                </g>
            </g>
        </g>
    </g>
</svg>