<?xml version="1.0" encoding="utf-8"?>
<!-- Generator: Adobe Illustrator 24.1.0, SVG Export Plug-In . SVG Version: 6.00 Build 0)  -->
<svg version="1.1" id="Layer_1" xmlns="http://www.w3.org/2000/svg" xmlns:xlink="http://www.w3.org/1999/xlink" x="0px" y="0px"
	 viewBox="0 0 18 19" style="enable-background:new 0 0 18 19;" xml:space="preserve">
<style type="text/css">
	.st0{enable-background:new    ;}
	.st1{fill:#FFFFFF;}
</style>
<g id="Login">
	<g id="SignIn-_x2F_-Error-Copy-2" transform="translate(-84.000000, -43.000000)">
		<g id="Group">
			<g id="Group-3" transform="translate(0.000000, 1.000000)">
				<g transform="translate(84.000000, 41.000000)">
					<g class="st0">
						<path class="st1" d="M14.6,1.5c0.9,0,1.7,0.3,2.4,1s1,1.5,1,2.4v11.2c0,0.9-0.3,1.7-1,2.4s-1.5,1-2.4,1h-2.2v-7h2.3l0.4-2.7
							h-2.7V8.1c0-0.4,0.1-0.8,0.3-1s0.5-0.3,1.1-0.3l1.4,0V4.3c-0.5-0.1-1.2-0.1-2.1-0.1c-1.1,0-1.9,0.3-2.5,0.9s-1,1.5-1,2.6v2
							H7.3v2.7h2.3v7H3.4c-0.9,0-1.7-0.3-2.4-1s-1-1.5-1-2.4V4.9c0-0.9,0.3-1.7,1-2.4s1.5-1,2.4-1H14.6z"/>
					</g>
				</g>
			</g>
		</g>
	</g>
</g>
<desc>Created with Sketch.</desc>
</svg>
