<?xml version="1.0" encoding="utf-8"?>
<!-- Generator: Adobe Illustrator 24.1.0, SVG Export Plug-In . SVG Version: 6.00 Build 0)  -->
<svg version="1.1" id="Layer_1" xmlns="http://www.w3.org/2000/svg" xmlns:xlink="http://www.w3.org/1999/xlink" x="0px" y="0px"
	 viewBox="0 0 18 19" style="enable-background:new 0 0 18 19;" xml:space="preserve">
<style type="text/css">
	.st0{enable-background:new    ;}
	.st1{fill:#FFFFFF;}
</style>
<desc>Created with Sketch.</desc>
<g id="Login">
	<g id="SignIn-_x2F_-Error-Copy-2" transform="translate(-130.000000, -43.000000)">
		<g id="Group">
			<g id="Group-3" transform="translate(0.000000, 1.000000)">
				<g transform="translate(84.000000, 41.000000)">
					<g class="st0">
						<path class="st1" d="M64,10.5c0,1.8,0,3-0.1,3.7c-0.1,1.6-0.6,2.9-1.5,3.8s-2.1,1.4-3.8,1.5c-0.7,0-1.9,0.1-3.7,0.1
							s-3,0-3.7-0.1c-1.6-0.1-2.9-0.6-3.8-1.5s-1.4-2.1-1.5-3.8c0-0.7-0.1-1.9-0.1-3.7s0-3,0.1-3.7c0.1-1.6,0.6-2.9,1.5-3.8
							s2.1-1.4,3.8-1.5c0.7,0,1.9-0.1,3.7-0.1s3,0,3.7,0.1c1.6,0.1,2.9,0.6,3.8,1.5s1.4,2.1,1.5,3.8C64,7.5,64,8.7,64,10.5z
							 M55.9,3.1c-0.5,0-0.8,0-0.9,0s-0.4,0-0.9,0s-1,0-1.2,0s-0.7,0-1.1,0s-0.9,0.1-1.2,0.1s-0.6,0.1-0.8,0.2
							c-0.4,0.2-0.7,0.4-1,0.7s-0.5,0.6-0.7,1c-0.1,0.2-0.2,0.5-0.2,0.8s-0.1,0.7-0.1,1.2s0,0.8,0,1.1s0,0.7,0,1.2s0,0.8,0,0.9
							s0,0.4,0,0.9s0,1,0,1.2s0,0.7,0,1.1s0.1,0.9,0.1,1.2s0.1,0.6,0.2,0.8c0.2,0.4,0.4,0.7,0.7,1s0.6,0.5,1,0.7
							c0.2,0.1,0.5,0.2,0.8,0.2s0.7,0.1,1.2,0.1s0.8,0,1.1,0s0.7,0,1.2,0s0.8,0,0.9,0s0.4,0,0.9,0s1,0,1.2,0s0.7,0,1.1,0
							s0.9-0.1,1.2-0.1s0.6-0.1,0.8-0.2c0.4-0.2,0.7-0.4,1-0.7s0.5-0.6,0.7-1c0.1-0.2,0.2-0.5,0.2-0.8s0.1-0.7,0.1-1.2s0-0.8,0-1.1
							s0-0.7,0-1.2s0-0.8,0-0.9s0-0.4,0-0.9s0-1,0-1.2s0-0.7,0-1.1S62.3,6.4,62.2,6S62.1,5.4,62,5.2c-0.2-0.4-0.4-0.7-0.7-1
							s-0.6-0.5-1-0.7c-0.2-0.1-0.5-0.2-0.8-0.2s-0.7-0.1-1.2-0.1s-0.8,0-1.1,0S56.4,3.1,55.9,3.1z M58.3,7.2c0.9,0.9,1.3,2,1.3,3.3
							s-0.4,2.4-1.3,3.3s-2,1.3-3.3,1.3s-2.4-0.4-3.3-1.3s-1.3-2-1.3-3.3s0.4-2.4,1.3-3.3s2-1.3,3.3-1.3S57.4,6.3,58.3,7.2z
							 M57.1,12.6c0.6-0.6,0.9-1.3,0.9-2.1S57.7,9,57.1,8.4S55.8,7.5,55,7.5s-1.5,0.3-2.1,0.9S52,9.7,52,10.5s0.3,1.5,0.9,2.1
							s1.3,0.9,2.1,0.9S56.5,13.2,57.1,12.6z M60.6,4.9c0.2,0.2,0.3,0.5,0.3,0.8s-0.1,0.6-0.3,0.8s-0.5,0.3-0.8,0.3S59.3,6.7,59,6.5
							S58.7,6,58.7,5.7s0.1-0.6,0.3-0.8s0.5-0.3,0.8-0.3S60.4,4.7,60.6,4.9z"/>
					</g>
				</g>
			</g>
		</g>
	</g>
</g>
</svg>
