<?xml version="1.0" encoding="UTF-8"?>
<svg width="71px" height="31px" viewBox="0 0 71 31" version="1.1" xmlns="http://www.w3.org/2000/svg" xmlns:xlink="http://www.w3.org/1999/xlink">
    <!-- Generator: Sketch 63.1 (92452) - https://sketch.com -->
    <title>Group 15</title>
    <desc>Created with Sketch.</desc>
    <defs>
        <polygon id="path-1" points="0.4204 0.160586335 22.5844 0.160586335 22.5844 22 0.4204 22"></polygon>
        <polygon id="path-3" points="0 0.0828 11.9772554 0.0828 11.9772554 8.9558 0 8.9558"></polygon>
    </defs>
    <g id="Page-1" stroke="none" stroke-width="1" fill="none" fill-rule="evenodd">
        <g id="SignIn-/-Error-Copy-4" transform="translate(-878.000000, -222.000000)">
            <g id="Group-15" transform="translate(878.000000, 222.000000)">
                <path d="M49.0993548,9 C47.8932906,9 46.8698732,9.75545475 46.4787709,10.8102971 L39.6195912,29.1887049 C39.2294816,30.2445452 38.2050715,31 37,31 L46.8996526,31 C48.1057167,31 49.1291341,30.2445452 49.5202364,29.1887049 L56.3794161,10.8102971 C56.7705184,9.75545475 57.7939358,9 59,9 L49.0993548,9 Z" id="Fill-1" fill="#00B3A9"></path>
                <path d="M58.9001985,9 C60.1072009,9 61.1305721,9.75545475 61.5206641,10.8102971 L68.380527,29.1887049 C68.7696264,30.2445452 69.7949829,31 71,31 L61.1007941,31 C59.8947843,31 58.8714131,30.2445452 58.4803285,29.1887049 L51.6204656,10.8102971 C51.2303736,9.75545475 50.2060097,9 49,9 L58.9001985,9 Z" id="Fill-3" fill="#243E95"></path>
                <path d="M13.3941073,29.4475332 L17,20.4588479 L14.4096018,14 L4,14 L10.1973346,29.4475332 C10.4739082,30.145655 11.0562781,30.7080581 11.7951991,31 C12.5351638,30.7080581 13.11649,30.145655 13.3941073,29.4475332" id="Fill-5" fill="#243E95"></path>
                <g id="Group-9" transform="translate(12.000000, 9.000000)">
                    <mask id="mask-2" fill="white">
                        <use xlink:href="#path-1"></use>
                    </mask>
                    <g id="Clip-8"></g>
                    <path d="M11.1354,13.5457075 C11.1354,13.5457075 9.8554,12.2865491 9.8554,11.2849683 C9.8554,10.588518 10.4284,10.0228379 11.1354,10.0228379 C11.8424,10.0228379 12.4154,10.588518 12.4154,11.2849683 C12.4154,12.2865491 11.1354,13.5457075 11.1354,13.5457075 L11.1354,13.5457075 Z M20.3694,0.160586335 L12.6124,0.160586335 C11.3974,0.160586335 10.3644,0.91053354 9.9714,1.9586764 L5.4074,14.0053845 L3.0614,20.2030988 C3.0364,20.2674932 3.0094,20.3328783 2.9804,20.3952913 C2.5384,21.3404031 1.5604,21.9992075 0.4224,21.9992075 C0.4224,21.9992075 0.4214,22.0001981 0.4204,22.0001981 L8.1804,22.0001981 L8.1814,21.9992075 L10.3954,21.9992075 L10.3744,21.9962354 C9.9804,21.9873193 9.5884,21.9229248 9.2174,21.8060242 C7.8214,21.3681422 6.6984,20.214987 6.6984,18.685372 C6.6984,18.582341 6.7004,18.482282 6.7064,18.385195 C6.7084,18.3406143 6.7124,18.2980149 6.7164,18.2544248 C6.7204,18.2058814 6.7254,18.1583286 6.7304,18.1107758 C6.7374,18.0562882 6.7434,18.0027913 6.7514,17.9492944 C6.7564,17.9205646 6.7614,17.8928255 6.7664,17.8640957 C6.7774,17.803664 6.7874,17.7432323 6.8014,17.684782 C7.0754,16.4830832 7.9024,15.7767261 9.3094,14.8345863 C8.4214,13.740872 7.7894,12.8324155 7.7894,11.7902168 C7.7894,9.89008634 9.3434,8.89742174 11.1014,8.89742174 C13.2144,8.89742174 14.1564,9.80587826 14.3554,10.869872 C14.3824,11.0174839 14.3964,11.1690584 14.3964,11.3216236 C14.3964,12.2162106 14.0294,12.8472758 13.3734,13.4605087 C12.9694,13.837959 12.4574,14.2094652 11.8524,14.632487 L12.5904,15.5280646 L14.1084,17.368754 L19.9454,1.9586764 C20.3384,0.91053354 21.3694,0.160586335 22.5844,0.160586335 L20.3694,0.160586335 Z M10.1424,15.8599435 C9.4544,16.308723 8.9924,17.0755118 8.9924,17.9344342 C8.9924,19.0499435 9.7494,19.9901019 10.7844,20.2863161 C11.0054,20.3497199 11.2394,20.3843938 11.4804,20.3843938 C12.1574,20.3843938 12.7804,20.1089839 13.2374,19.6691205 L11.7264,17.8096081 L10.1424,15.8599435 Z" id="Fill-7" fill="#00B3A9" mask="url(#mask-2)"></path>
                </g>
                <path d="M34.8996526,9 C36.1057167,9 37.1301268,9.75545475 37.5202364,10.8102971 L44.3804088,29.1887049 C44.7695258,30.2445452 45.7949285,31 47,31 L37.1003474,31 C35.8942833,31 34.8698732,30.2445452 34.4797636,29.1887049 L27.6205839,10.8102971 C27.2294816,9.75545475 26.2050715,9 25,9 L34.8996526,9 Z" id="Fill-10" fill="#243E95"></path>
                <g id="Group-14">
                    <mask id="mask-4" fill="white">
                        <use xlink:href="#path-3"></use>
                    </mask>
                    <g id="Clip-13"></g>
                    <path d="M9.32470154,1.7768 C9.32470154,1.7768 9.05787077,0.8998 8.34796308,0.4598 C7.97774769,0.2298 7.54747077,0.0828 7.08273231,0.0828 C6.67608615,0.0828 6.34722462,0.1878 5.96125538,0.3708 C5.94550154,0.3778 -0.000590769231,3.1178 -0.000590769231,3.1178 L2.15670154,8.9558 L11.9772554,8.9558 L9.32470154,1.7768 Z" id="Fill-12" fill="#243E95" mask="url(#mask-4)"></path>
                </g>
            </g>
        </g>
    </g>
</svg>